<svg width="495" height="453" viewBox="0 0 495 453" fill="none" xmlns="http://www.w3.org/2000/svg">
<path d="M447.892 288.853C390.497 255.716 297.441 255.716 240.046 288.853C215.762 302.873 201.753 320.58 198.018 338.853H197.001L197.001 348.604C196.891 370.403 211.239 392.221 240.046 408.853C297.441 441.99 390.497 441.99 447.892 408.853C476.868 392.124 491.215 370.148 490.935 348.222V338.853H489.921C486.186 320.58 472.177 302.873 447.892 288.853Z" fill="#D03737"/>
<path d="M240.046 278.853C297.441 245.716 390.497 245.716 447.892 278.853C505.288 311.99 505.288 365.716 447.892 398.853C390.497 431.99 297.441 431.99 240.046 398.853C182.651 365.716 182.651 311.99 240.046 278.853Z" fill="#ECACAC"/>
<g filter="url(#filter0_d_897_24094)">
<path d="M428.203 193.856L459.938 262.236L373.235 312.294L254.797 293.972L223.062 225.591L309.765 175.533L428.203 193.856Z" fill="#D03737"/>
<path d="M223.316 225.475L254.873 293.539V346.752L223.316 278.688V225.475Z" fill="#D03737"/>
<g filter="url(#filter1_d_897_24094)">
<path d="M254.873 293.848L373.134 311.328V364.541L254.873 347.061V293.848Z" fill="#F5D6D6"/>
<path d="M255.373 346.63V294.427L372.634 311.759V363.962L255.373 346.63Z" stroke="#D03737"/>
</g>
<path d="M266.066 328.544L329.029 337.85V348.031L266.066 338.724V328.544Z" fill="#D03737"/>
<g filter="url(#filter2_d_897_24094)">
<path d="M459.876 262.252L373.133 311.328V364.541L459.876 315.466V262.252Z" fill="#F5D6D6"/>
<path d="M373.633 363.684V311.619L459.376 263.109V315.174L373.633 363.684Z" stroke="#D03737"/>
</g>
<ellipse rx="7.675" ry="7.675" transform="matrix(0.866026 -0.5 -2.20305e-08 -1 446.643 307.111)" fill="#D03737"/>
</g>
<path d="M362.084 85.833L361.746 85.1048L360.953 84.9821L298.574 75.3321L298.047 75.2506L297.587 75.5199L252.056 102.173L251.314 102.608V103.468V153.013L220.512 171.155L219.773 171.59V172.447V236.135V236.466L219.913 236.766L236.533 272.613L236.872 273.346L237.671 273.466L299.956 282.835L300.468 282.912L300.918 282.657L346.398 256.926L353.903 255.377L415.926 264.545L416.435 264.62L416.883 264.367L462.569 238.52L463.33 238.089V237.214V173.186V172.855L463.192 172.556L446.509 136.523L446.172 135.793L445.378 135.67L383.459 126.092L378.677 121.585L362.084 85.833Z" fill="#0C1248" stroke="#0C1248" stroke-width="3"/>
<path d="M361.073 86.5548L377.787 122.569L332.123 148.934L269.744 139.284L253.029 103.269L298.694 76.9048L361.073 86.5548Z" fill="#F5D6D6"/>
<path d="M253.164 103.208L269.784 139.056V190.302L253.164 154.454V103.208Z" fill="#D03737"/>
<path d="M269.785 139.219L332.071 148.425V199.672L269.785 190.465V139.219Z" fill="#D03737"/>
<path d="M377.756 122.578L332.07 148.425V199.672L377.756 173.825V122.578Z" fill="#D03737"/>
<path d="M445.496 137.243L462.211 173.258L416.546 199.622L354.168 189.972L337.453 153.958L383.118 127.593L445.496 137.243Z" fill="#F5D6D6"/>
<path d="M337.588 153.896L354.208 189.744V253.782L337.588 217.935V153.896Z" fill="#D03737"/>
<path d="M354.209 189.907L416.494 199.114V263.152L354.209 253.945V189.907Z" fill="#ECACAC"/>
<path d="M462.18 173.267L416.494 199.114V263.152L462.18 237.305V173.267Z" fill="url(#paint0_linear_897_24094)" fill-opacity="0.2"/>
<path d="M462.18 173.267L416.494 199.114V263.152L462.18 237.305V173.267Z" fill="#475569"/>
<path d="M329.532 155.534L346.246 191.549L300.582 217.913L238.203 208.263L221.488 172.249L267.153 145.884L329.532 155.534Z" fill="#F5D6D6"/>
<path d="M221.623 172.188L238.243 208.035V272.073L221.623 236.226V172.188Z" fill="#ECACAC"/>
<path d="M238.244 208.198L300.53 217.405V281.443L238.244 272.236V208.198Z" fill="#ECACAC"/>
<path d="M346.215 191.558L300.529 217.405V281.443L346.215 255.596V191.558Z" fill="url(#paint1_linear_897_24094)" fill-opacity="0.2"/>
<path d="M346.215 191.558L300.529 217.405V281.443L346.215 255.596V191.558Z" fill="#475569"/>
<line x1="0.5" y1="132.5" x2="247.5" y2="132.5" stroke="#043752" stroke-linecap="round"/>
<path d="M1.316 154V144.2H3.024L6.594 149.996L5.614 149.982L9.212 144.2H10.836V154H9.058V150.332C9.058 149.483 9.07667 148.722 9.114 148.05C9.16067 147.369 9.23533 146.697 9.338 146.034L9.562 146.622L6.524 151.326H5.586L2.632 146.678L2.828 146.034C2.93067 146.659 3.00067 147.303 3.038 147.966C3.08467 148.629 3.108 149.417 3.108 150.332V154H1.316ZM16.774 154.14C15.9993 154.14 15.3133 153.981 14.716 153.664C14.128 153.337 13.666 152.894 13.33 152.334C13.0033 151.765 12.84 151.111 12.84 150.374C12.84 149.795 12.9333 149.268 13.12 148.792C13.3066 148.316 13.568 147.905 13.904 147.56C14.24 147.205 14.6366 146.935 15.094 146.748C15.5606 146.552 16.0646 146.454 16.606 146.454C17.1006 146.454 17.5533 146.547 17.964 146.734C18.384 146.921 18.748 147.177 19.056 147.504C19.364 147.821 19.5973 148.204 19.756 148.652C19.924 149.091 20.0033 149.571 19.994 150.094L19.98 150.71H14.016L13.68 149.52H18.538L18.328 149.758V149.436C18.3 149.156 18.2066 148.909 18.048 148.694C17.8893 148.47 17.684 148.297 17.432 148.176C17.1893 148.045 16.9186 147.98 16.62 147.98C16.1626 147.98 15.7753 148.069 15.458 148.246C15.1406 148.414 14.898 148.666 14.73 149.002C14.5713 149.338 14.492 149.753 14.492 150.248C14.492 150.724 14.59 151.139 14.786 151.494C14.9913 151.849 15.2806 152.124 15.654 152.32C16.0273 152.516 16.4613 152.614 16.956 152.614C17.3013 152.614 17.6186 152.558 17.908 152.446C18.2066 152.334 18.524 152.133 18.86 151.844L19.7 153.02C19.448 153.253 19.1586 153.454 18.832 153.622C18.5146 153.781 18.1786 153.907 17.824 154C17.4693 154.093 17.1193 154.14 16.774 154.14ZM21.6591 154V146.622H23.3391L23.3671 148.974L23.1431 148.442C23.2458 148.069 23.4231 147.733 23.6751 147.434C23.9271 147.135 24.2164 146.902 24.5431 146.734C24.8791 146.557 25.2244 146.468 25.5791 146.468C25.7378 146.468 25.8871 146.482 26.0271 146.51C26.1764 146.538 26.2978 146.571 26.3911 146.608L25.9431 148.484C25.8311 148.428 25.7004 148.386 25.5511 148.358C25.4111 148.321 25.2664 148.302 25.1171 148.302C24.8744 148.302 24.6458 148.349 24.4311 148.442C24.2258 148.526 24.0438 148.647 23.8851 148.806C23.7358 148.965 23.6144 149.151 23.5211 149.366C23.4278 149.571 23.3811 149.8 23.3811 150.052V154H21.6591ZM30.5412 154.14C29.8506 154.14 29.2299 153.972 28.6792 153.636C28.1286 153.3 27.6946 152.843 27.3772 152.264C27.0599 151.685 26.9012 151.032 26.9012 150.304C26.9012 149.576 27.0599 148.923 27.3772 148.344C27.6946 147.765 28.1286 147.308 28.6792 146.972C29.2299 146.636 29.8506 146.468 30.5412 146.468C31.1946 146.468 31.7919 146.599 32.3332 146.86C32.8839 147.112 33.3039 147.457 33.5932 147.896L32.6552 149.044C32.5152 148.848 32.3379 148.671 32.1232 148.512C31.9086 148.353 31.6752 148.227 31.4232 148.134C31.1806 148.041 30.9426 147.994 30.7092 147.994C30.2892 147.994 29.9159 148.097 29.5892 148.302C29.2719 148.498 29.0199 148.773 28.8332 149.128C28.6466 149.473 28.5532 149.865 28.5532 150.304C28.5532 150.743 28.6466 151.135 28.8332 151.48C29.0292 151.825 29.2906 152.101 29.6172 152.306C29.9439 152.511 30.3079 152.614 30.7092 152.614C30.9612 152.614 31.1992 152.577 31.4232 152.502C31.6472 152.418 31.8619 152.301 32.0672 152.152C32.2819 152.003 32.4779 151.816 32.6552 151.592L33.5932 152.74C33.2852 153.151 32.8512 153.487 32.2912 153.748C31.7312 154.009 31.1479 154.14 30.5412 154.14ZM35.0504 154V143.64H36.7444V148.134L36.4224 148.302C36.5251 147.975 36.7071 147.677 36.9684 147.406C37.2391 147.126 37.5611 146.902 37.9344 146.734C38.3078 146.557 38.6951 146.468 39.0964 146.468C39.6564 146.468 40.1231 146.58 40.4964 146.804C40.8791 147.028 41.1638 147.364 41.3504 147.812C41.5371 148.26 41.6304 148.82 41.6304 149.492V154H39.9224V149.618C39.9224 149.235 39.8711 148.923 39.7684 148.68C39.6658 148.428 39.5071 148.246 39.2924 148.134C39.0778 148.013 38.8164 147.961 38.5084 147.98C38.2564 147.98 38.0231 148.022 37.8084 148.106C37.5938 148.181 37.4071 148.293 37.2484 148.442C37.0991 148.582 36.9778 148.75 36.8844 148.946C36.8004 149.133 36.7584 149.338 36.7584 149.562V154H35.9044C35.7458 154 35.5918 154 35.4424 154C35.3024 154 35.1718 154 35.0504 154ZM47.9357 154V149.282C47.9357 148.881 47.8003 148.568 47.5297 148.344C47.2683 148.111 46.9277 147.994 46.5077 147.994C46.1157 147.994 45.761 148.073 45.4437 148.232C45.1263 148.381 44.8323 148.624 44.5617 148.96L43.4977 147.896C43.9363 147.429 44.4217 147.075 44.9537 146.832C45.4857 146.589 46.0597 146.468 46.6757 146.468C47.2637 146.468 47.7677 146.561 48.1877 146.748C48.617 146.935 48.9483 147.215 49.1817 147.588C49.415 147.952 49.5317 148.4 49.5317 148.932V154H47.9357ZM45.8357 154.14C45.3597 154.14 44.935 154.047 44.5617 153.86C44.1883 153.673 43.8897 153.417 43.6657 153.09C43.451 152.754 43.3437 152.362 43.3437 151.914C43.3437 151.522 43.4137 151.181 43.5537 150.892C43.6937 150.593 43.899 150.346 44.1697 150.15C44.4497 149.954 44.795 149.809 45.2057 149.716C45.6257 149.613 46.1063 149.562 46.6477 149.562H48.7617L48.6357 150.794H46.5497C46.2977 150.794 46.0737 150.817 45.8777 150.864C45.6817 150.911 45.5137 150.981 45.3737 151.074C45.2337 151.167 45.131 151.279 45.0657 151.41C45.0003 151.531 44.9677 151.681 44.9677 151.858C44.9677 152.045 45.0143 152.208 45.1077 152.348C45.201 152.479 45.327 152.581 45.4857 152.656C45.6443 152.731 45.831 152.768 46.0457 152.768C46.3537 152.768 46.643 152.717 46.9137 152.614C47.1937 152.511 47.441 152.367 47.6557 152.18C47.8703 151.993 48.0383 151.783 48.1597 151.55L48.5097 152.502C48.3137 152.829 48.071 153.113 47.7817 153.356C47.5017 153.599 47.1937 153.79 46.8577 153.93C46.531 154.07 46.1903 154.14 45.8357 154.14ZM51.4906 154V146.622H53.1566L53.1846 148.134L52.8626 148.302C52.9652 147.975 53.1472 147.677 53.4086 147.406C53.6792 147.126 54.0012 146.902 54.3746 146.734C54.7479 146.557 55.1352 146.468 55.5366 146.468C56.0966 146.468 56.5632 146.58 56.9366 146.804C57.3192 147.028 57.6039 147.364 57.7906 147.812C57.9772 148.26 58.0706 148.82 58.0706 149.492V154H56.3626V149.618C56.3626 149.235 56.3112 148.923 56.2086 148.68C56.1059 148.428 55.9472 148.246 55.7326 148.134C55.5179 148.013 55.2566 147.961 54.9486 147.98C54.6966 147.98 54.4632 148.022 54.2486 148.106C54.0339 148.181 53.8472 148.293 53.6886 148.442C53.5392 148.582 53.4179 148.75 53.3246 148.946C53.2406 149.133 53.1986 149.338 53.1986 149.562V154H52.3446C52.1859 154 52.0319 154 51.8826 154C51.7426 154 51.6119 154 51.4906 154ZM60.9738 154V144.746H62.6818V154H60.9738ZM59.5178 148.218V146.622H64.2918V148.218H59.5178ZM68.4807 154.14C67.8367 154.14 67.2533 154.033 66.7307 153.818C66.2173 153.594 65.7973 153.277 65.4707 152.866L66.5767 151.914C66.8567 152.222 67.1693 152.451 67.5147 152.6C67.86 152.74 68.224 152.81 68.6067 152.81C68.7653 152.81 68.9053 152.791 69.0267 152.754C69.1573 152.717 69.2693 152.661 69.3627 152.586C69.456 152.511 69.526 152.423 69.5727 152.32C69.6287 152.217 69.6567 152.105 69.6567 151.984C69.6567 151.76 69.5727 151.583 69.4047 151.452C69.3113 151.396 69.1667 151.331 68.9707 151.256C68.7747 151.172 68.518 151.093 68.2007 151.018C67.6967 150.887 67.272 150.738 66.9267 150.57C66.5907 150.393 66.3293 150.197 66.1427 149.982C65.984 149.795 65.8673 149.595 65.7927 149.38C65.718 149.156 65.6807 148.909 65.6807 148.638C65.6807 148.218 65.802 147.845 66.0447 147.518C66.2967 147.191 66.628 146.935 67.0387 146.748C67.4493 146.561 67.9067 146.468 68.4107 146.468C68.784 146.468 69.1433 146.515 69.4887 146.608C69.8433 146.701 70.17 146.837 70.4687 147.014C70.7673 147.182 71.024 147.387 71.2387 147.63L70.2867 148.68C70.1187 148.512 69.9273 148.363 69.7127 148.232C69.5073 148.092 69.2973 147.985 69.0827 147.91C68.868 147.835 68.6673 147.798 68.4807 147.798C68.3033 147.798 68.1447 147.817 68.0047 147.854C67.8647 147.882 67.748 147.929 67.6547 147.994C67.5613 148.059 67.4867 148.143 67.4307 148.246C67.384 148.339 67.3607 148.447 67.3607 148.568C67.37 148.689 67.398 148.801 67.4447 148.904C67.5007 148.997 67.5753 149.077 67.6687 149.142C67.762 149.207 67.9113 149.282 68.1167 149.366C68.322 149.45 68.588 149.529 68.9147 149.604C69.372 149.725 69.7547 149.861 70.0627 150.01C70.3707 150.159 70.6133 150.332 70.7907 150.528C70.968 150.696 71.094 150.892 71.1687 151.116C71.2433 151.34 71.2807 151.592 71.2807 151.872C71.2807 152.311 71.1547 152.703 70.9027 153.048C70.66 153.384 70.3287 153.65 69.9087 153.846C69.4887 154.042 69.0127 154.14 68.4807 154.14Z" fill="#043752"/>
<line x1="0.5" y1="286.5" x2="235.5" y2="286.5" stroke="#043752" stroke-linecap="round"/>
<path d="M5.46 308.14C4.76 308.14 4.116 308.019 3.528 307.776C2.94 307.533 2.43133 307.188 2.002 306.74C1.57267 306.283 1.23667 305.746 0.994 305.13C0.760667 304.505 0.644 303.823 0.644 303.086C0.644 302.377 0.77 301.719 1.022 301.112C1.274 300.505 1.624 299.973 2.072 299.516C2.52 299.059 3.04267 298.704 3.64 298.452C4.23733 298.2 4.88133 298.074 5.572 298.074C6.048 298.074 6.51 298.144 6.958 298.284C7.406 298.424 7.81667 298.62 8.19 298.872C8.57267 299.115 8.88533 299.404 9.128 299.74L7.966 300.986C7.602 300.613 7.21933 300.328 6.818 300.132C6.426 299.936 6.01067 299.838 5.572 299.838C5.14267 299.838 4.73667 299.917 4.354 300.076C3.98067 300.235 3.654 300.459 3.374 300.748C3.10333 301.037 2.88867 301.383 2.73 301.784C2.57133 302.176 2.492 302.615 2.492 303.1C2.492 303.595 2.56667 304.047 2.716 304.458C2.87467 304.859 3.094 305.205 3.374 305.494C3.66333 305.783 4.004 306.003 4.396 306.152C4.79733 306.301 5.24067 306.376 5.726 306.376C6.02467 306.376 6.31867 306.339 6.608 306.264C6.89733 306.18 7.168 306.059 7.42 305.9C7.672 305.741 7.896 305.559 8.092 305.354L8.988 306.796C8.764 307.048 8.46533 307.277 8.092 307.482C7.71867 307.687 7.30333 307.851 6.846 307.972C6.38867 308.084 5.92667 308.14 5.46 308.14ZM10.7183 308V300.622H12.3983L12.4263 302.974L12.2023 302.442C12.305 302.069 12.4823 301.733 12.7343 301.434C12.9863 301.135 13.2756 300.902 13.6023 300.734C13.9383 300.557 14.2836 300.468 14.6383 300.468C14.797 300.468 14.9463 300.482 15.0863 300.51C15.2356 300.538 15.357 300.571 15.4503 300.608L15.0023 302.484C14.8903 302.428 14.7596 302.386 14.6103 302.358C14.4703 302.321 14.3256 302.302 14.1763 302.302C13.9336 302.302 13.705 302.349 13.4903 302.442C13.285 302.526 13.103 302.647 12.9443 302.806C12.795 302.965 12.6736 303.151 12.5803 303.366C12.487 303.571 12.4403 303.8 12.4403 304.052V308H10.7183ZM19.7964 308.14C19.0591 308.14 18.4011 307.977 17.8224 307.65C17.2438 307.314 16.7864 306.857 16.4504 306.278C16.1238 305.699 15.9604 305.041 15.9604 304.304C15.9604 303.567 16.1238 302.909 16.4504 302.33C16.7864 301.751 17.2438 301.299 17.8224 300.972C18.4011 300.636 19.0591 300.468 19.7964 300.468C20.5244 300.468 21.1778 300.636 21.7564 300.972C22.3351 301.299 22.7878 301.751 23.1144 302.33C23.4504 302.909 23.6184 303.567 23.6184 304.304C23.6184 305.041 23.4504 305.699 23.1144 306.278C22.7878 306.857 22.3351 307.314 21.7564 307.65C21.1778 307.977 20.5244 308.14 19.7964 308.14ZM19.7964 306.614C20.1978 306.614 20.5571 306.516 20.8744 306.32C21.1918 306.115 21.4391 305.839 21.6164 305.494C21.8031 305.139 21.8918 304.743 21.8824 304.304C21.8918 303.856 21.8031 303.459 21.6164 303.114C21.4391 302.759 21.1918 302.484 20.8744 302.288C20.5571 302.092 20.1978 301.994 19.7964 301.994C19.3951 301.994 19.0311 302.097 18.7044 302.302C18.3871 302.498 18.1398 302.773 17.9624 303.128C17.7851 303.473 17.6964 303.865 17.6964 304.304C17.6964 304.743 17.7851 305.139 17.9624 305.494C18.1398 305.839 18.3871 306.115 18.7044 306.32C19.0311 306.516 19.3951 306.614 19.7964 306.614ZM27.7631 308.14C27.1191 308.14 26.5358 308.033 26.0131 307.818C25.4998 307.594 25.0798 307.277 24.7531 306.866L25.8591 305.914C26.1391 306.222 26.4518 306.451 26.7971 306.6C27.1424 306.74 27.5064 306.81 27.8891 306.81C28.0478 306.81 28.1878 306.791 28.3091 306.754C28.4398 306.717 28.5518 306.661 28.6451 306.586C28.7384 306.511 28.8084 306.423 28.8551 306.32C28.9111 306.217 28.9391 306.105 28.9391 305.984C28.9391 305.76 28.8551 305.583 28.6871 305.452C28.5938 305.396 28.4491 305.331 28.2531 305.256C28.0571 305.172 27.8004 305.093 27.4831 305.018C26.9791 304.887 26.5544 304.738 26.2091 304.57C25.8731 304.393 25.6118 304.197 25.4251 303.982C25.2664 303.795 25.1498 303.595 25.0751 303.38C25.0004 303.156 24.9631 302.909 24.9631 302.638C24.9631 302.218 25.0844 301.845 25.3271 301.518C25.5791 301.191 25.9104 300.935 26.3211 300.748C26.7318 300.561 27.1891 300.468 27.6931 300.468C28.0664 300.468 28.4258 300.515 28.7711 300.608C29.1258 300.701 29.4524 300.837 29.7511 301.014C30.0498 301.182 30.3064 301.387 30.5211 301.63L29.5691 302.68C29.4011 302.512 29.2098 302.363 28.9951 302.232C28.7898 302.092 28.5798 301.985 28.3651 301.91C28.1504 301.835 27.9498 301.798 27.7631 301.798C27.5858 301.798 27.4271 301.817 27.2871 301.854C27.1471 301.882 27.0304 301.929 26.9371 301.994C26.8438 302.059 26.7691 302.143 26.7131 302.246C26.6664 302.339 26.6431 302.447 26.6431 302.568C26.6524 302.689 26.6804 302.801 26.7271 302.904C26.7831 302.997 26.8578 303.077 26.9511 303.142C27.0444 303.207 27.1938 303.282 27.3991 303.366C27.6044 303.45 27.8704 303.529 28.1971 303.604C28.6544 303.725 29.0371 303.861 29.3451 304.01C29.6531 304.159 29.8958 304.332 30.0731 304.528C30.2504 304.696 30.3764 304.892 30.4511 305.116C30.5258 305.34 30.5631 305.592 30.5631 305.872C30.5631 306.311 30.4371 306.703 30.1851 307.048C29.9424 307.384 29.6111 307.65 29.1911 307.846C28.7711 308.042 28.2951 308.14 27.7631 308.14ZM34.6843 308.14C34.0403 308.14 33.457 308.033 32.9343 307.818C32.421 307.594 32.001 307.277 31.6743 306.866L32.7803 305.914C33.0603 306.222 33.373 306.451 33.7183 306.6C34.0637 306.74 34.4277 306.81 34.8103 306.81C34.969 306.81 35.109 306.791 35.2303 306.754C35.361 306.717 35.473 306.661 35.5663 306.586C35.6597 306.511 35.7297 306.423 35.7763 306.32C35.8323 306.217 35.8603 306.105 35.8603 305.984C35.8603 305.76 35.7763 305.583 35.6083 305.452C35.515 305.396 35.3703 305.331 35.1743 305.256C34.9783 305.172 34.7217 305.093 34.4043 305.018C33.9003 304.887 33.4757 304.738 33.1303 304.57C32.7943 304.393 32.533 304.197 32.3463 303.982C32.1877 303.795 32.071 303.595 31.9963 303.38C31.9217 303.156 31.8843 302.909 31.8843 302.638C31.8843 302.218 32.0057 301.845 32.2483 301.518C32.5003 301.191 32.8317 300.935 33.2423 300.748C33.653 300.561 34.1103 300.468 34.6143 300.468C34.9877 300.468 35.347 300.515 35.6923 300.608C36.047 300.701 36.3737 300.837 36.6723 301.014C36.971 301.182 37.2277 301.387 37.4423 301.63L36.4903 302.68C36.3223 302.512 36.131 302.363 35.9163 302.232C35.711 302.092 35.501 301.985 35.2863 301.91C35.0717 301.835 34.871 301.798 34.6843 301.798C34.507 301.798 34.3483 301.817 34.2083 301.854C34.0683 301.882 33.9517 301.929 33.8583 301.994C33.765 302.059 33.6903 302.143 33.6343 302.246C33.5877 302.339 33.5643 302.447 33.5643 302.568C33.5737 302.689 33.6017 302.801 33.6483 302.904C33.7043 302.997 33.779 303.077 33.8723 303.142C33.9657 303.207 34.115 303.282 34.3203 303.366C34.5257 303.45 34.7917 303.529 35.1183 303.604C35.5757 303.725 35.9583 303.861 36.2663 304.01C36.5743 304.159 36.817 304.332 36.9943 304.528C37.1717 304.696 37.2977 304.892 37.3723 305.116C37.447 305.34 37.4843 305.592 37.4843 305.872C37.4843 306.311 37.3583 306.703 37.1063 307.048C36.8637 307.384 36.5323 307.65 36.1123 307.846C35.6923 308.042 35.2163 308.14 34.6843 308.14ZM45.8472 308.14C45.2032 308.14 44.6198 308.033 44.0972 307.818C43.5838 307.594 43.1638 307.277 42.8372 306.866L43.9432 305.914C44.2232 306.222 44.5358 306.451 44.8812 306.6C45.2265 306.74 45.5905 306.81 45.9732 306.81C46.1318 306.81 46.2718 306.791 46.3932 306.754C46.5238 306.717 46.6358 306.661 46.7292 306.586C46.8225 306.511 46.8925 306.423 46.9392 306.32C46.9952 306.217 47.0232 306.105 47.0232 305.984C47.0232 305.76 46.9392 305.583 46.7712 305.452C46.6778 305.396 46.5332 305.331 46.3372 305.256C46.1412 305.172 45.8845 305.093 45.5672 305.018C45.0632 304.887 44.6385 304.738 44.2932 304.57C43.9572 304.393 43.6958 304.197 43.5092 303.982C43.3505 303.795 43.2338 303.595 43.1592 303.38C43.0845 303.156 43.0472 302.909 43.0472 302.638C43.0472 302.218 43.1685 301.845 43.4112 301.518C43.6632 301.191 43.9945 300.935 44.4052 300.748C44.8158 300.561 45.2732 300.468 45.7772 300.468C46.1505 300.468 46.5098 300.515 46.8552 300.608C47.2098 300.701 47.5365 300.837 47.8352 301.014C48.1338 301.182 48.3905 301.387 48.6052 301.63L47.6532 302.68C47.4852 302.512 47.2938 302.363 47.0792 302.232C46.8738 302.092 46.6638 301.985 46.4492 301.91C46.2345 301.835 46.0338 301.798 45.8472 301.798C45.6698 301.798 45.5112 301.817 45.3712 301.854C45.2312 301.882 45.1145 301.929 45.0212 301.994C44.9278 302.059 44.8532 302.143 44.7972 302.246C44.7505 302.339 44.7272 302.447 44.7272 302.568C44.7365 302.689 44.7645 302.801 44.8112 302.904C44.8672 302.997 44.9418 303.077 45.0352 303.142C45.1285 303.207 45.2778 303.282 45.4832 303.366C45.6885 303.45 45.9545 303.529 46.2812 303.604C46.7385 303.725 47.1212 303.861 47.4292 304.01C47.7372 304.159 47.9798 304.332 48.1572 304.528C48.3345 304.696 48.4605 304.892 48.5352 305.116C48.6098 305.34 48.6472 305.592 48.6472 305.872C48.6472 306.311 48.5212 306.703 48.2692 307.048C48.0265 307.384 47.6952 307.65 47.2752 307.846C46.8552 308.042 46.3792 308.14 45.8472 308.14ZM52.0404 308L49.5624 300.622L51.3264 300.608L52.9784 305.886L52.6564 305.844L54.4624 301.742H55.4844L57.3324 305.858L56.9684 305.886L58.6344 300.622H60.3984L57.8924 308H56.6884L54.7844 303.562L55.0504 303.59L53.2584 308H52.0404ZM61.9881 308V300.622H63.6961V308H61.9881ZM62.8281 299.054C62.4827 299.054 62.2121 298.97 62.0161 298.802C61.8294 298.625 61.7361 298.377 61.7361 298.06C61.7361 297.761 61.8341 297.523 62.0301 297.346C62.2261 297.159 62.4921 297.066 62.8281 297.066C63.1734 297.066 63.4394 297.155 63.6261 297.332C63.8221 297.5 63.9201 297.743 63.9201 298.06C63.9201 298.349 63.8221 298.587 63.6261 298.774C63.4301 298.961 63.1641 299.054 62.8281 299.054ZM66.832 308V298.746H68.54V308H66.832ZM65.376 302.218V300.622H70.15V302.218H65.376ZM74.697 308.14C74.0063 308.14 73.3857 307.972 72.835 307.636C72.2843 307.3 71.8503 306.843 71.533 306.264C71.2157 305.685 71.057 305.032 71.057 304.304C71.057 303.576 71.2157 302.923 71.533 302.344C71.8503 301.765 72.2843 301.308 72.835 300.972C73.3857 300.636 74.0063 300.468 74.697 300.468C75.3503 300.468 75.9477 300.599 76.489 300.86C77.0397 301.112 77.4597 301.457 77.749 301.896L76.811 303.044C76.671 302.848 76.4937 302.671 76.279 302.512C76.0643 302.353 75.831 302.227 75.579 302.134C75.3363 302.041 75.0983 301.994 74.865 301.994C74.445 301.994 74.0717 302.097 73.745 302.302C73.4277 302.498 73.1757 302.773 72.989 303.128C72.8023 303.473 72.709 303.865 72.709 304.304C72.709 304.743 72.8023 305.135 72.989 305.48C73.185 305.825 73.4463 306.101 73.773 306.306C74.0997 306.511 74.4637 306.614 74.865 306.614C75.117 306.614 75.355 306.577 75.579 306.502C75.803 306.418 76.0177 306.301 76.223 306.152C76.4377 306.003 76.6337 305.816 76.811 305.592L77.749 306.74C77.441 307.151 77.007 307.487 76.447 307.748C75.887 308.009 75.3037 308.14 74.697 308.14ZM79.2062 308V297.64H80.9002V302.134L80.5782 302.302C80.6809 301.975 80.8629 301.677 81.1242 301.406C81.3949 301.126 81.7169 300.902 82.0902 300.734C82.4635 300.557 82.8509 300.468 83.2522 300.468C83.8122 300.468 84.2789 300.58 84.6522 300.804C85.0349 301.028 85.3195 301.364 85.5062 301.812C85.6929 302.26 85.7862 302.82 85.7862 303.492V308H84.0782V303.618C84.0782 303.235 84.0269 302.923 83.9242 302.68C83.8215 302.428 83.6629 302.246 83.4482 302.134C83.2335 302.013 82.9722 301.961 82.6642 301.98C82.4122 301.98 82.1789 302.022 81.9642 302.106C81.7495 302.181 81.5629 302.293 81.4042 302.442C81.2549 302.582 81.1335 302.75 81.0402 302.946C80.9562 303.133 80.9142 303.338 80.9142 303.562V308H80.0602C79.9015 308 79.7475 308 79.5982 308C79.4582 308 79.3275 308 79.2062 308Z" fill="#043752"/>
<line x1="0.5" y1="368.5" x2="199.5" y2="368.5" stroke="#043752" stroke-linecap="round"/>
<path d="M1.316 390V380.2H3.024L6.594 385.996L5.614 385.982L9.212 380.2H10.836V390H9.058V386.332C9.058 385.483 9.07667 384.722 9.114 384.05C9.16067 383.369 9.23533 382.697 9.338 382.034L9.562 382.622L6.524 387.326H5.586L2.632 382.678L2.828 382.034C2.93067 382.659 3.00067 383.303 3.038 383.966C3.08467 384.629 3.108 385.417 3.108 386.332V390H1.316ZM17.53 390V385.282C17.53 384.881 17.3946 384.568 17.124 384.344C16.8626 384.111 16.522 383.994 16.102 383.994C15.71 383.994 15.3553 384.073 15.038 384.232C14.7206 384.381 14.4266 384.624 14.156 384.96L13.092 383.896C13.5306 383.429 14.016 383.075 14.548 382.832C15.08 382.589 15.654 382.468 16.27 382.468C16.858 382.468 17.362 382.561 17.782 382.748C18.2113 382.935 18.5426 383.215 18.776 383.588C19.0093 383.952 19.126 384.4 19.126 384.932V390H17.53ZM15.43 390.14C14.954 390.14 14.5293 390.047 14.156 389.86C13.7826 389.673 13.484 389.417 13.26 389.09C13.0453 388.754 12.938 388.362 12.938 387.914C12.938 387.522 13.008 387.181 13.148 386.892C13.288 386.593 13.4933 386.346 13.764 386.15C14.044 385.954 14.3893 385.809 14.8 385.716C15.22 385.613 15.7006 385.562 16.242 385.562H18.356L18.23 386.794H16.144C15.892 386.794 15.668 386.817 15.472 386.864C15.276 386.911 15.108 386.981 14.968 387.074C14.828 387.167 14.7253 387.279 14.66 387.41C14.5946 387.531 14.562 387.681 14.562 387.858C14.562 388.045 14.6086 388.208 14.702 388.348C14.7953 388.479 14.9213 388.581 15.08 388.656C15.2386 388.731 15.4253 388.768 15.64 388.768C15.948 388.768 16.2373 388.717 16.508 388.614C16.788 388.511 17.0353 388.367 17.25 388.18C17.4646 387.993 17.6326 387.783 17.754 387.55L18.104 388.502C17.908 388.829 17.6653 389.113 17.376 389.356C17.096 389.599 16.788 389.79 16.452 389.93C16.1253 390.07 15.7846 390.14 15.43 390.14ZM21.0849 390V382.622H22.7649L22.7929 384.974L22.5689 384.442C22.6715 384.069 22.8489 383.733 23.1009 383.434C23.3529 383.135 23.6422 382.902 23.9689 382.734C24.3049 382.557 24.6502 382.468 25.0049 382.468C25.1635 382.468 25.3129 382.482 25.4529 382.51C25.6022 382.538 25.7235 382.571 25.8169 382.608L25.3689 384.484C25.2569 384.428 25.1262 384.386 24.9769 384.358C24.8369 384.321 24.6922 384.302 24.5429 384.302C24.3002 384.302 24.0715 384.349 23.8569 384.442C23.6515 384.526 23.4695 384.647 23.3109 384.806C23.1615 384.965 23.0402 385.151 22.9469 385.366C22.8535 385.571 22.8069 385.8 22.8069 386.052V390H21.0849ZM28.7135 387.746L28.3915 386.122L31.8915 382.622H34.1735L28.7135 387.746ZM27.1175 390V379.64H28.8255V390H27.1175ZM32.0875 390L29.3855 386.724L30.5895 385.688L34.2155 390H32.0875ZM38.6315 390.14C37.8568 390.14 37.1708 389.981 36.5735 389.664C35.9855 389.337 35.5235 388.894 35.1875 388.334C34.8608 387.765 34.6975 387.111 34.6975 386.374C34.6975 385.795 34.7908 385.268 34.9775 384.792C35.1641 384.316 35.4255 383.905 35.7615 383.56C36.0975 383.205 36.4941 382.935 36.9515 382.748C37.4181 382.552 37.9221 382.454 38.4635 382.454C38.9581 382.454 39.4108 382.547 39.8215 382.734C40.2415 382.921 40.6055 383.177 40.9135 383.504C41.2215 383.821 41.4548 384.204 41.6135 384.652C41.7815 385.091 41.8608 385.571 41.8515 386.094L41.8375 386.71H35.8735L35.5375 385.52H40.3955L40.1855 385.758V385.436C40.1575 385.156 40.0641 384.909 39.9055 384.694C39.7468 384.47 39.5415 384.297 39.2895 384.176C39.0468 384.045 38.7761 383.98 38.4775 383.98C38.0201 383.98 37.6328 384.069 37.3155 384.246C36.9981 384.414 36.7555 384.666 36.5875 385.002C36.4288 385.338 36.3495 385.753 36.3495 386.248C36.3495 386.724 36.4475 387.139 36.6435 387.494C36.8488 387.849 37.1381 388.124 37.5115 388.32C37.8848 388.516 38.3188 388.614 38.8135 388.614C39.1588 388.614 39.4761 388.558 39.7655 388.446C40.0641 388.334 40.3815 388.133 40.7175 387.844L41.5575 389.02C41.3055 389.253 41.0161 389.454 40.6895 389.622C40.3721 389.781 40.0361 389.907 39.6815 390C39.3268 390.093 38.9768 390.14 38.6315 390.14ZM44.3286 390V380.746H46.0366V390H44.3286ZM42.8726 384.218V382.622H47.6466V384.218H42.8726ZM55.8036 390.14C55.1596 390.14 54.5762 390.033 54.0536 389.818C53.5402 389.594 53.1202 389.277 52.7936 388.866L53.8996 387.914C54.1796 388.222 54.4922 388.451 54.8376 388.6C55.1829 388.74 55.5469 388.81 55.9296 388.81C56.0882 388.81 56.2282 388.791 56.3496 388.754C56.4802 388.717 56.5922 388.661 56.6856 388.586C56.7789 388.511 56.8489 388.423 56.8956 388.32C56.9516 388.217 56.9796 388.105 56.9796 387.984C56.9796 387.76 56.8956 387.583 56.7276 387.452C56.6342 387.396 56.4896 387.331 56.2936 387.256C56.0976 387.172 55.8409 387.093 55.5236 387.018C55.0196 386.887 54.5949 386.738 54.2496 386.57C53.9136 386.393 53.6522 386.197 53.4656 385.982C53.3069 385.795 53.1902 385.595 53.1156 385.38C53.0409 385.156 53.0036 384.909 53.0036 384.638C53.0036 384.218 53.1249 383.845 53.3676 383.518C53.6196 383.191 53.9509 382.935 54.3616 382.748C54.7722 382.561 55.2296 382.468 55.7336 382.468C56.1069 382.468 56.4662 382.515 56.8116 382.608C57.1662 382.701 57.4929 382.837 57.7916 383.014C58.0902 383.182 58.3469 383.387 58.5616 383.63L57.6096 384.68C57.4416 384.512 57.2502 384.363 57.0356 384.232C56.8302 384.092 56.6202 383.985 56.4056 383.91C56.1909 383.835 55.9902 383.798 55.8036 383.798C55.6262 383.798 55.4676 383.817 55.3276 383.854C55.1876 383.882 55.0709 383.929 54.9776 383.994C54.8842 384.059 54.8096 384.143 54.7536 384.246C54.7069 384.339 54.6836 384.447 54.6836 384.568C54.6929 384.689 54.7209 384.801 54.7676 384.904C54.8236 384.997 54.8982 385.077 54.9916 385.142C55.0849 385.207 55.2342 385.282 55.4396 385.366C55.6449 385.45 55.9109 385.529 56.2376 385.604C56.6949 385.725 57.0776 385.861 57.3856 386.01C57.6936 386.159 57.9362 386.332 58.1136 386.528C58.2909 386.696 58.4169 386.892 58.4916 387.116C58.5662 387.34 58.6036 387.592 58.6036 387.872C58.6036 388.311 58.4776 388.703 58.2256 389.048C57.9829 389.384 57.6516 389.65 57.2316 389.846C56.8116 390.042 56.3356 390.14 55.8036 390.14ZM60.2608 390V379.64H61.9548V384.134L61.6328 384.302C61.7355 383.975 61.9175 383.677 62.1788 383.406C62.4495 383.126 62.7715 382.902 63.1448 382.734C63.5181 382.557 63.9055 382.468 64.3068 382.468C64.8668 382.468 65.3335 382.58 65.7068 382.804C66.0895 383.028 66.3741 383.364 66.5608 383.812C66.7475 384.26 66.8408 384.82 66.8408 385.492V390H65.1328V385.618C65.1328 385.235 65.0815 384.923 64.9788 384.68C64.8761 384.428 64.7175 384.246 64.5028 384.134C64.2881 384.013 64.0268 383.961 63.7188 383.98C63.4668 383.98 63.2335 384.022 63.0188 384.106C62.8041 384.181 62.6175 384.293 62.4588 384.442C62.3095 384.582 62.1881 384.75 62.0948 384.946C62.0108 385.133 61.9688 385.338 61.9688 385.562V390H61.1148C60.9561 390 60.8021 390 60.6528 390C60.5128 390 60.3821 390 60.2608 390ZM73.1461 390V385.282C73.1461 384.881 73.0107 384.568 72.7401 384.344C72.4787 384.111 72.1381 383.994 71.7181 383.994C71.3261 383.994 70.9714 384.073 70.6541 384.232C70.3367 384.381 70.0427 384.624 69.7721 384.96L68.7081 383.896C69.1467 383.429 69.6321 383.075 70.1641 382.832C70.6961 382.589 71.2701 382.468 71.8861 382.468C72.4741 382.468 72.9781 382.561 73.3981 382.748C73.8274 382.935 74.1587 383.215 74.3921 383.588C74.6254 383.952 74.7421 384.4 74.7421 384.932V390H73.1461ZM71.0461 390.14C70.5701 390.14 70.1454 390.047 69.7721 389.86C69.3987 389.673 69.1001 389.417 68.8761 389.09C68.6614 388.754 68.5541 388.362 68.5541 387.914C68.5541 387.522 68.6241 387.181 68.7641 386.892C68.9041 386.593 69.1094 386.346 69.3801 386.15C69.6601 385.954 70.0054 385.809 70.4161 385.716C70.8361 385.613 71.3167 385.562 71.8581 385.562H73.9721L73.8461 386.794H71.7601C71.5081 386.794 71.2841 386.817 71.0881 386.864C70.8921 386.911 70.7241 386.981 70.5841 387.074C70.4441 387.167 70.3414 387.279 70.2761 387.41C70.2107 387.531 70.1781 387.681 70.1781 387.858C70.1781 388.045 70.2247 388.208 70.3181 388.348C70.4114 388.479 70.5374 388.581 70.6961 388.656C70.8547 388.731 71.0414 388.768 71.2561 388.768C71.5641 388.768 71.8534 388.717 72.1241 388.614C72.4041 388.511 72.6514 388.367 72.8661 388.18C73.0807 387.993 73.2487 387.783 73.3701 387.55L73.7201 388.502C73.5241 388.829 73.2814 389.113 72.9921 389.356C72.7121 389.599 72.4041 389.79 72.0681 389.93C71.7414 390.07 71.4007 390.14 71.0461 390.14ZM76.701 390V382.622H78.381L78.409 384.974L78.185 384.442C78.2876 384.069 78.465 383.733 78.717 383.434C78.969 383.135 79.2583 382.902 79.585 382.734C79.921 382.557 80.2663 382.468 80.621 382.468C80.7796 382.468 80.929 382.482 81.069 382.51C81.2183 382.538 81.3396 382.571 81.433 382.608L80.985 384.484C80.873 384.428 80.7423 384.386 80.593 384.358C80.453 384.321 80.3083 384.302 80.159 384.302C79.9163 384.302 79.6876 384.349 79.473 384.442C79.2676 384.526 79.0856 384.647 78.927 384.806C78.7776 384.965 78.6563 385.151 78.563 385.366C78.4696 385.571 78.423 385.8 78.423 386.052V390H76.701ZM85.8771 390.14C85.1024 390.14 84.4164 389.981 83.8191 389.664C83.2311 389.337 82.7691 388.894 82.4331 388.334C82.1064 387.765 81.9431 387.111 81.9431 386.374C81.9431 385.795 82.0364 385.268 82.2231 384.792C82.4098 384.316 82.6711 383.905 83.0071 383.56C83.3431 383.205 83.7398 382.935 84.1971 382.748C84.6638 382.552 85.1678 382.454 85.7091 382.454C86.2038 382.454 86.6564 382.547 87.0671 382.734C87.4871 382.921 87.8511 383.177 88.1591 383.504C88.4671 383.821 88.7004 384.204 88.8591 384.652C89.0271 385.091 89.1064 385.571 89.0971 386.094L89.0831 386.71H83.1191L82.7831 385.52H87.6411L87.4311 385.758V385.436C87.4031 385.156 87.3098 384.909 87.1511 384.694C86.9924 384.47 86.7871 384.297 86.5351 384.176C86.2924 384.045 86.0218 383.98 85.7231 383.98C85.2658 383.98 84.8784 384.069 84.5611 384.246C84.2438 384.414 84.0011 384.666 83.8331 385.002C83.6744 385.338 83.5951 385.753 83.5951 386.248C83.5951 386.724 83.6931 387.139 83.8891 387.494C84.0944 387.849 84.3838 388.124 84.7571 388.32C85.1304 388.516 85.5644 388.614 86.0591 388.614C86.4044 388.614 86.7218 388.558 87.0111 388.446C87.3098 388.334 87.6271 388.133 87.9631 387.844L88.8031 389.02C88.5511 389.253 88.2618 389.454 87.9351 389.622C87.6178 389.781 87.2818 389.907 86.9271 390C86.5724 390.093 86.2224 390.14 85.8771 390.14Z" fill="#043752"/>
<defs>
<filter id="filter0_d_897_24094" x="193.062" y="175.533" width="296.875" height="251.008" filterUnits="userSpaceOnUse" color-interpolation-filters="sRGB">
<feFlood flood-opacity="0" result="BackgroundImageFix"/>
<feColorMatrix in="SourceAlpha" type="matrix" values="0 0 0 0 0 0 0 0 0 0 0 0 0 0 0 0 0 0 127 0" result="hardAlpha"/>
<feOffset dy="32"/>
<feGaussianBlur stdDeviation="15"/>
<feComposite in2="hardAlpha" operator="out"/>
<feColorMatrix type="matrix" values="0 0 0 0 0 0 0 0 0 0 0 0 0 0 0 0 0 0 0.25 0"/>
<feBlend mode="normal" in2="BackgroundImageFix" result="effect1_dropShadow_897_24094"/>
<feBlend mode="normal" in="SourceGraphic" in2="effect1_dropShadow_897_24094" result="shape"/>
</filter>
<filter id="filter1_d_897_24094" x="250.873" y="293.848" width="126.262" height="78.6934" filterUnits="userSpaceOnUse" color-interpolation-filters="sRGB">
<feFlood flood-opacity="0" result="BackgroundImageFix"/>
<feColorMatrix in="SourceAlpha" type="matrix" values="0 0 0 0 0 0 0 0 0 0 0 0 0 0 0 0 0 0 127 0" result="hardAlpha"/>
<feOffset dy="4"/>
<feGaussianBlur stdDeviation="2"/>
<feComposite in2="hardAlpha" operator="out"/>
<feColorMatrix type="matrix" values="0 0 0 0 0 0 0 0 0 0 0 0 0 0 0 0 0 0 0.25 0"/>
<feBlend mode="normal" in2="BackgroundImageFix" result="effect1_dropShadow_897_24094"/>
<feBlend mode="normal" in="SourceGraphic" in2="effect1_dropShadow_897_24094" result="shape"/>
</filter>
<filter id="filter2_d_897_24094" x="369.133" y="262.252" width="94.7422" height="110.289" filterUnits="userSpaceOnUse" color-interpolation-filters="sRGB">
<feFlood flood-opacity="0" result="BackgroundImageFix"/>
<feColorMatrix in="SourceAlpha" type="matrix" values="0 0 0 0 0 0 0 0 0 0 0 0 0 0 0 0 0 0 127 0" result="hardAlpha"/>
<feOffset dy="4"/>
<feGaussianBlur stdDeviation="2"/>
<feComposite in2="hardAlpha" operator="out"/>
<feColorMatrix type="matrix" values="0 0 0 0 0 0 0 0 0 0 0 0 0 0 0 0 0 0 0.25 0"/>
<feBlend mode="normal" in2="BackgroundImageFix" result="effect1_dropShadow_897_24094"/>
<feBlend mode="normal" in="SourceGraphic" in2="effect1_dropShadow_897_24094" result="shape"/>
</filter>
<linearGradient id="paint0_linear_897_24094" x1="462.18" y1="218.431" x2="416.494" y2="218.431" gradientUnits="userSpaceOnUse">
<stop offset="0.15615" stop-color="white"/>
<stop offset="0.15625"/>
<stop offset="0.385317"/>
<stop offset="0.385417" stop-color="white"/>
<stop offset="0.609275" stop-color="white"/>
<stop offset="0.609375"/>
<stop offset="0.828025"/>
<stop offset="0.828125" stop-color="white"/>
</linearGradient>
<linearGradient id="paint1_linear_897_24094" x1="346.215" y1="236.722" x2="300.529" y2="236.722" gradientUnits="userSpaceOnUse">
<stop offset="0.15615" stop-color="white"/>
<stop offset="0.15625"/>
<stop offset="0.385317"/>
<stop offset="0.385417" stop-color="white"/>
<stop offset="0.609275" stop-color="white"/>
<stop offset="0.609375"/>
<stop offset="0.828025"/>
<stop offset="0.828125" stop-color="white"/>
</linearGradient>
</defs>
</svg>
